<svg width="37" height="40" viewBox="0 0 37 40" fill="none" xmlns="http://www.w3.org/2000/svg">
<path d="M0.834344 21.348L5.01425 17.8542C5.98291 17.0447 7.40667 17.1957 8.19403 18.1912C8.98176 19.187 8.83486 20.6508 7.8662 21.4602L5.84341 23.1511L20.5299 35.8731C21.4985 36.6825 21.6454 38.1463 20.8577 39.1418C20.4111 39.707 19.7595 39.9999 19.1028 39.9999C18.6018 39.9999 18.0971 39.8295 17.6783 39.4791L0.834344 24.9541C0.306723 24.5128 0 23.8506 0 23.1511C0 22.4515 0.306723 21.7897 0.834344 21.348Z" fill="white"/>
<path d="M19.3953 7.32817e-05C20.5952 0.00996334 21.5605 1.018 21.5509 2.25197L21.364 37.7835C21.3544 39.0175 20.3736 40.0095 19.1736 39.9996C18.8695 39.9974 18.5809 39.9308 18.3189 39.8129C17.5475 39.4648 17.0106 38.6694 17.0176 37.7478L17.2049 2.21659C17.2145 0.982613 18.195 -0.00981677 19.3953 7.32817e-05Z" fill="white"/>
<path d="M28.9345 24.4415L30.4781 23.1513L24.9799 18.5551C24.0112 17.7456 23.8647 16.2819 24.6521 15.2864C25.4394 14.2901 26.8632 14.1395 27.8319 14.949L35.4868 21.3482C36.0148 21.7899 36.3212 22.4517 36.3212 23.1513C36.3212 23.8508 36.0148 24.513 35.4868 24.9543L31.7864 28.0476C31.3672 28.398 30.8629 28.5683 30.3619 28.5683C29.7048 28.5683 29.0532 28.2755 28.6066 27.7106C27.8193 26.7147 27.9662 25.2514 28.9345 24.4415Z" fill="#453A5C" fill-opacity="0.94"/>
</svg>
